HIERARCHY
ROOT Hips
{
	OFFSET 0.000000 35.082581 0.000000
	CHANNELS 6 Xposition Yposition Zposition Xrotation Yrotation Zrotation 
	JOINT Spine
	{
		OFFSET 0.000000 6.876099 0.125700
		CHANNELS 3 Xrotation Yrotation Zrotation
		JOINT Spine1
		{
			OFFSET 0.000000 5.730043 0.104720
			CHANNELS 3 Xrotation Yrotation Zrotation
			JOINT Spine1_split
			{
				OFFSET 0.000000 5.730043 0.104720
				CHANNELS 3 Xrotation Yrotation Zrotation
				JOINT Spine2
				{
					OFFSET 0.000000 5.730043 0.104720
					CHANNELS 3 Xrotation Yrotation Zrotation
					JOINT Neck
					{
						OFFSET 0.000000 10.314075 0.188496
						CHANNELS 3 Xrotation Yrotation Zrotation
						JOINT Head
						{
							OFFSET 0.000000 7.643700 -2.377400
							CHANNELS 3 Xrotation Yrotation Zrotation
							JOINT HeadTop_End
							{
								OFFSET 0.000000 43.788605 -13.619600
								CHANNELS 3 Xrotation Yrotation Zrotation
								End Site
								{
									OFFSET 0.000000 0.000000 0.000000
								}
							}
						}
					}
					JOINT LeftShoulder
					{
						OFFSET 2.196100 4.412489 0.087492
						CHANNELS 3 Xrotation Yrotation Zrotation
						JOINT LeftShoulder_split
						{
							OFFSET 2.196100 4.412489 0.087492
							CHANNELS 3 Xrotation Yrotation Zrotation
							JOINT LeftArm
							{
								OFFSET 8.771219 -2.981674 -0.026999
								CHANNELS 3 Xrotation Yrotation Zrotation
								JOINT LeftForeArm
								{
									OFFSET 8.512804 0.000000 -0.000000
									CHANNELS 3 Xrotation Yrotation Zrotation
									JOINT LeftHand
									{
										OFFSET 18.484802 0.000000 -0.000000
										CHANNELS 3 Xrotation Yrotation Zrotation
										JOINT LeftHandThumb1
										{
											OFFSET 2.499420 -1.158070 2.653252
											CHANNELS 3 Xrotation Yrotation Zrotation
											JOINT LeftHandThumb2
											{
												OFFSET 2.370079 -1.368366 1.368366
												CHANNELS 3 Xrotation Yrotation Zrotation
												JOINT LeftHandThumb3
												{
													OFFSET 2.676727 -1.545410 1.545409
													CHANNELS 3 Xrotation Yrotation Zrotation
													JOINT LeftHandThumb4
													{
														OFFSET 1.692226 -0.977005 0.977007
														CHANNELS 3 Xrotation Yrotation Zrotation
														End Site
														{
															OFFSET 0.000000 0.000000 0.000000
														}
													}
												}
											}
										}
										JOINT LeftHandIndex1
										{
											OFFSET 7.924831 -0.457527 2.345128
											CHANNELS 3 Xrotation Yrotation Zrotation
											JOINT LeftHandIndex2
											{
												OFFSET 3.643303 0.000000 0.000000
												CHANNELS 3 Xrotation Yrotation Zrotation
												JOINT LeftHandIndex3
												{
													OFFSET 3.810799 0.000000 0.000000
													CHANNELS 3 Xrotation Yrotation Zrotation
													JOINT LeftHandIndex4
													{
														OFFSET 2.403702 0.000000 0.000000
														CHANNELS 3 Xrotation Yrotation Zrotation
														End Site
														{
															OFFSET 0.000000 0.000000 0.000000
														}
													}
												}
											}
										}
										JOINT LeftHandMiddle1
										{
											OFFSET 8.563995 0.000000 -0.000000
											CHANNELS 3 Xrotation Yrotation Zrotation
											JOINT LeftHandMiddle2
											{
												OFFSET 3.861618 0.000000 0.000000
												CHANNELS 3 Xrotation Yrotation Zrotation
												JOINT LeftHandMiddle3
												{
													OFFSET 3.701603 0.000000 0.000000
													CHANNELS 3 Xrotation Yrotation Zrotation
													JOINT LeftHandMiddle4
													{
														OFFSET 2.322544 0.000000 0.000000
														CHANNELS 3 Xrotation Yrotation Zrotation
														End Site
														{
															OFFSET 0.000000 0.000000 0.000000
														}
													}
												}
											}
										}
										JOINT LeftHandRing1
										{
											OFFSET 8.426460 -0.424637 -3.286992
											CHANNELS 3 Xrotation Yrotation Zrotation
											JOINT LeftHandRing2
											{
												OFFSET 3.126408 0.000000 0.000000
												CHANNELS 3 Xrotation Yrotation Zrotation
												JOINT LeftHandRing3
												{
													OFFSET 3.085026 0.000000 0.000000
													CHANNELS 3 Xrotation Yrotation Zrotation
													JOINT LeftHandRing4
													{
														OFFSET 1.644005 0.000000 0.000000
														CHANNELS 3 Xrotation Yrotation Zrotation
														End Site
														{
															OFFSET 0.000000 0.000000 0.000000
														}
													}
												}
											}
										}
									}
								}
							}
						}
					}
					JOINT RightShoulder
					{
						OFFSET -2.196100 4.412496 0.070690
						CHANNELS 3 Xrotation Yrotation Zrotation
						JOINT RightShoulder_split
						{
							OFFSET -2.196100 4.412496 0.070690
							CHANNELS 3 Xrotation Yrotation Zrotation
							JOINT RightArm
							{
								OFFSET -8.771282 -2.981682 -0.094208
								CHANNELS 3 Xrotation Yrotation Zrotation
								JOINT RightForeArm
								{
									OFFSET -8.494598 0.000000 0.000000
									CHANNELS 3 Xrotation Yrotation Zrotation
									JOINT RightHand
									{
										OFFSET -18.483803 0.000000 0.000001
										CHANNELS 3 Xrotation Yrotation Zrotation
										JOINT RightHandThumb1
										{
											OFFSET -2.527351 -1.008072 2.575253
											CHANNELS 3 Xrotation Yrotation Zrotation
											JOINT RightHandThumb2
											{
												OFFSET -2.321518 -1.340328 1.340329
												CHANNELS 3 Xrotation Yrotation Zrotation
												JOINT RightHandThumb3
												{
													OFFSET -2.657753 -1.534454 1.534455
													CHANNELS 3 Xrotation Yrotation Zrotation
													JOINT RightHandThumb4
													{
														OFFSET -1.807510 -1.043568 1.043567
														CHANNELS 3 Xrotation Yrotation Zrotation
														End Site
														{
															OFFSET 0.000000 0.000000 0.000000
														}
													}
												}
											}
										}
										JOINT RightHandIndex1
										{
											OFFSET -8.811420 0.015533 2.887987
											CHANNELS 3 Xrotation Yrotation Zrotation
											JOINT RightHandIndex2
											{
												OFFSET -3.537502 0.000000 0.000000
												CHANNELS 3 Xrotation Yrotation Zrotation
												JOINT RightHandIndex3
												{
													OFFSET -3.356201 0.000000 0.000000
													CHANNELS 3 Xrotation Yrotation Zrotation
													JOINT RightHandIndex4
													{
														OFFSET -1.933098 0.000000 0.000000
														CHANNELS 3 Xrotation Yrotation Zrotation
														End Site
														{
															OFFSET 0.000000 0.000000 0.000000
														}
													}
												}
											}
										}
										JOINT RightHandMiddle1
										{
											OFFSET -8.178135 0.000000 0.000000
											CHANNELS 3 Xrotation Yrotation Zrotation
											JOINT RightHandMiddle2
											{
												OFFSET -3.901302 0.000000 0.000000
												CHANNELS 3 Xrotation Yrotation Zrotation
												JOINT RightHandMiddle3
												{
													OFFSET -3.909599 0.000000 0.000000
													CHANNELS 3 Xrotation Yrotation Zrotation
													JOINT RightHandMiddle4
													{
														OFFSET -2.376003 0.000000 0.000000
														CHANNELS 3 Xrotation Yrotation Zrotation
														End Site
														{
															OFFSET 0.000000 0.000000 0.000000
														}
													}
												}
											}
										}
										JOINT RightHandRing1
										{
											OFFSET -7.559013 0.014137 -2.865403
											CHANNELS 3 Xrotation Yrotation Zrotation
											JOINT RightHandRing2
											{
												OFFSET -3.449306 0.000000 0.000000
												CHANNELS 3 Xrotation Yrotation Zrotation
												JOINT RightHandRing3
												{
													OFFSET -3.362106 0.000000 0.000000
													CHANNELS 3 Xrotation Yrotation Zrotation
													JOINT RightHandRing4
													{
														OFFSET -2.076401 0.000000 0.000000
														CHANNELS 3 Xrotation Yrotation Zrotation
														End Site
														{
															OFFSET 0.000000 0.000000 0.000000
														}
													}
												}
											}
										}
									}
								}
							}
						}
					}
				}
			}
		}
	}
	JOINT LeftUpLeg
	{
		OFFSET 10.205400 -3.823500 0.155100
		CHANNELS 3 Xrotation Yrotation Zrotation
		JOINT LeftLeg
		{
			OFFSET 0.708757 -12.982077 0.567790
			CHANNELS 3 Xrotation Yrotation Zrotation
			JOINT LeftFoot
			{
				OFFSET -0.708756 -10.717838 -2.184338
				CHANNELS 3 Xrotation Yrotation Zrotation
				JOINT LeftToeBase
				{
					OFFSET 0.108149 -7.191104 7.560241
					CHANNELS 3 Xrotation Yrotation Zrotation
					JOINT LeftToe_End
					{
						OFFSET 0.070230 0.081724 4.490308
						CHANNELS 3 Xrotation Yrotation Zrotation
						End Site
						{
							OFFSET 0.000000 0.000000 0.000000
						}
					}
				}
			}
		}
	}
	JOINT RightUpLeg
	{
		OFFSET -10.205400 -3.823500 0.005500
		CHANNELS 3 Xrotation Yrotation Zrotation
		JOINT RightLeg
		{
			OFFSET -0.708756 -12.982134 0.610632
			CHANNELS 3 Xrotation Yrotation Zrotation
			JOINT RightFoot
			{
				OFFSET 0.708754 -10.717769 -1.945823
				CHANNELS 3 Xrotation Yrotation Zrotation
				JOINT RightToeBase
				{
					OFFSET -0.108140 -7.191069 7.372968
					CHANNELS 3 Xrotation Yrotation Zrotation
					JOINT RightToe_End
					{
						OFFSET -0.070227 0.081735 4.479403
						CHANNELS 3 Xrotation Yrotation Zrotation
						End Site
						{
							OFFSET 0.000000 0.000000 0.000000
						}
					}
				}
			}
		}
	}
}
MOTION
Frames: 4
Frame Time: 0.016667
10.714764 30.587009 3.413061 154.191193 -63.900784 159.736883 10.375570 -2.771768 2.286522 5.441867 -1.990658 -3.512894 0.000000 0.000000 0.000000 -3.218468 -5.241833 -2.484898 6.043348 13.386876 -0.965033 -12.384981 14.668040 -5.260458 -0.000000 0.000000 -0.000000 -1.837986 -14.467483 -4.296814 0.000000 0.000000 0.000000 -24.431872 -9.271217 -47.099226 -14.226265 -27.309284 -17.570324 3.474883 -7.760224 6.842559 20.212985 -4.649826 10.411166 3.371801 17.053166 -9.307513 9.278269 14.738780 -1.340731 -0.000002 0.000001 -0.000001 -0.754223 0.208578 -13.245171 0.030487 -0.759506 -17.420356 -0.102851 -1.044110 -20.385652 0.000002 -0.000002 -0.000001 2.446925 2.844464 -23.035247 -0.021040 -2.027851 -31.425168 0.012569 -2.399557 -34.994365 0.000002 0.000001 -0.000002 0.752460 4.505555 -30.750249 -0.981889 -1.227431 -35.970921 -1.038313 -1.357723 -39.134730 0.000001 -0.000001 -0.000001 -5.499227 24.268046 2.019070 0.000000 0.000000 0.000000 -13.675001 -20.288490 57.835166 13.715961 34.549426 -4.170632 13.832398 22.666563 12.809452 55.149563 18.649548 -29.698308 -0.442554 -14.180555 7.313153 21.666989 -29.244507 9.142369 0.000002 -0.000005 -0.000003 5.673401 7.585008 36.844158 1.050449 3.824529 68.900237 0.499583 3.026039 62.196447 0.000002 -0.000003 -0.000001 -0.125711 1.886099 45.000783 -1.169018 3.204648 68.417670 -0.936426 1.813611 41.107555 -0.000000 0.000003 0.000000 -5.312017 1.216650 58.508807 -0.745224 1.667560 48.011292 -0.816488 1.840606 53.666545 0.000003 -0.000001 -0.000002 -50.893659 43.721540 60.553903 41.463083 -18.178105 -6.719347 -4.524818 10.313379 -7.147499 -0.495541 11.592279 -9.275373 -0.000000 0.000002 0.000000 -42.385070 -10.628968 -35.513411 54.533583 1.473954 7.128159 -20.132519 -6.667934 14.830683 0.624339 3.639683 0.391579 0.000000 -0.000003 -0.000000 
10.625037 30.567368 3.272964 154.881807 -62.507911 160.552858 10.484352 -2.748952 2.239667 5.299436 -1.863429 -3.688205 0.000000 0.000000 0.000000 -3.740326 -4.710141 -2.529078 6.087835 13.825680 -1.303474 -12.333074 14.943286 -5.101977 -0.000002 0.000000 0.000000 -1.833833 -14.445324 -4.259431 0.000000 0.000000 0.000000 -24.484070 -9.447719 -47.266763 -14.703155 -28.284790 -17.623220 3.654420 -8.621942 6.264435 20.213252 -4.649936 10.411322 3.371633 17.053302 -9.307558 9.278322 14.738735 -1.340752 -0.000001 -0.000003 -0.000002 -0.754217 0.208571 -13.245177 0.030186 -0.759592 -17.420329 -0.102888 -1.044175 -20.385669 -0.000001 -0.000001 -0.000001 2.446881 2.844505 -23.035262 -0.021117 -2.027795 -31.425185 0.012654 -2.399457 -34.994331 0.000000 0.000000 0.000001 0.752461 4.505434 -30.750263 -0.981754 -1.227654 -35.970935 -1.038135 -1.358003 -39.134703 -0.000002 0.000003 -0.000000 -5.518090 24.192588 2.050986 0.000000 0.000000 0.000000 -13.471657 -20.141994 57.616641 14.645645 34.292515 -4.668592 13.381616 22.766226 12.759864 55.149563 18.649546 -29.698298 -0.442556 -14.180552 7.313155 21.666991 -29.244503 9.142366 0.000002 -0.000002 0.000003 5.673398 7.585012 36.844168 1.050450 3.824529 68.900244 0.499588 3.026041 62.196440 0.000003 -0.000002 -0.000001 -0.125714 1.886100 45.000787 -1.169012 3.204650 68.417670 -0.936423 1.813614 41.107555 0.000001 0.000003 0.000005 -5.312018 1.216651 58.508814 -0.745226 1.667561 48.011288 -0.816488 1.840607 53.666548 -0.000000 0.000001 -0.000001 -53.199777 42.539596 62.329001 42.406189 -19.716854 -6.370800 -3.374668 9.226016 -5.176770 -0.203516 12.587305 -10.666334 -0.000000 -0.000008 0.000001 -43.275816 -10.155749 -34.998521 54.868692 1.698542 7.162865 -20.236237 -5.973738 14.237789 0.957875 3.691096 0.220913 0.000000 -0.000003 0.000000 
10.514940 30.546906 3.128825 155.506755 -61.185258 161.327525 10.543540 -2.716045 2.178065 5.170757 -1.727731 -3.885306 0.000000 0.000000 0.000000 -4.258831 -4.169644 -2.589052 6.369382 14.108990 -1.231390 -12.373165 15.396882 -5.297319 -0.000000 0.000000 0.000000 -1.831043 -14.578228 -4.183428 0.000000 0.000000 0.000000 -24.473715 -9.331592 -47.461151 -15.137509 -29.354866 -17.695169 3.798870 -9.351024 5.643274 20.213496 -4.650051 10.411483 3.371473 17.053446 -9.307613 9.278378 14.738701 -1.340721 -0.000001 -0.000000 -0.000002 -0.754173 0.208578 -13.245177 0.029919 -0.759667 -17.420362 -0.103001 -1.044296 -20.385673 0.000001 -0.000001 -0.000001 2.446819 2.844523 -23.035250 -0.021150 -2.027662 -31.425185 0.012751 -2.399350 -34.994297 -0.000002 0.000000 -0.000001 0.752473 4.505307 -30.750249 -0.981629 -1.227873 -35.970904 -1.037945 -1.358218 -39.134672 0.000001 0.000000 0.000001 -5.543615 24.107508 2.123111 0.000000 0.000000 0.000000 -13.173070 -20.156841 57.392304 15.493938 34.171027 -5.133757 12.981448 22.876443 12.755361 55.149556 18.649548 -29.698311 -0.442556 -14.180550 7.313159 21.666989 -29.244503 9.142364 0.000003 -0.000002 0.000005 5.673397 7.585009 36.844165 1.050452 3.824529 68.900244 0.499587 3.026039 62.196447 -0.000001 -0.000000 -0.000001 -0.125714 1.886102 45.000790 -1.169009 3.204652 68.417670 -0.936426 1.813608 41.107555 -0.000002 0.000001 -0.000003 -5.312020 1.216651 58.508814 -0.745219 1.667564 48.011292 -0.816487 1.840605 53.666552 0.000000 -0.000001 0.000001 -55.250899 41.326978 63.707613 43.131289 -21.022653 -5.978062 -2.089507 8.174545 -3.318644 0.298212 13.288699 -11.910629 -0.000000 0.000001 -0.000000 -44.039352 -9.694463 -34.525998 55.201271 1.922456 7.158718 -20.389238 -5.346581 13.749540 1.268603 3.735594 0.082965 0.000000 0.000000 -0.000000 
10.386948 30.525661 2.955607 156.054045 -59.903860 162.087110 10.565849 -2.680458 2.111654 5.077494 -1.603199 -4.097639 0.000000 0.000000 0.000000 -4.749397 -3.643000 -2.662464 6.469093 14.668545 -1.949852 -12.456451 15.384866 -4.709118 0.000001 0.000000 0.000000 -1.822017 -14.611906 -4.119288 0.000000 0.000000 0.000000 -24.396495 -9.365106 -47.588008 -15.736315 -30.089913 -17.677860 3.879478 -10.256103 4.806043 20.213719 -4.650140 10.411637 3.371280 17.053563 -9.307670 9.278483 14.738645 -1.340682 -0.000002 0.000003 -0.000002 -0.754148 0.208557 -13.245170 0.029626 -0.759756 -17.420343 -0.103041 -1.044331 -20.385659 -0.000001 0.000001 0.000000 2.446761 2.844557 -23.035235 -0.021238 -2.027531 -31.425168 0.012922 -2.399235 -34.994358 0.000002 0.000001 -0.000001 0.752426 4.505242 -30.750222 -0.981487 -1.228062 -35.970898 -1.037774 -1.358442 -39.134696 -0.000003 -0.000001 0.000002 -5.569902 24.018603 2.202756 0.000000 0.000000 0.000000 -12.836170 -20.262255 57.156427 16.241531 34.139638 -5.554858 12.609192 23.011157 12.781489 55.149556 18.649545 -29.698308 -0.442553 -14.180548 7.313159 21.666996 -29.244507 9.142367 -0.000001 0.000000 -0.000000 5.673398 7.585008 36.844158 1.050449 3.824526 68.900244 0.499594 3.026043 62.196447 0.000001 -0.000000 0.000001 -0.125709 1.886098 45.000783 -1.169013 3.204653 68.417670 -0.936426 1.813614 41.107552 0.000000 -0.000002 0.000005 -5.312017 1.216648 58.508807 -0.745220 1.667557 48.011292 -0.816484 1.840604 53.666552 -0.000001 -0.000005 -0.000001 -56.953806 40.203627 64.622066 43.457772 -22.049367 -5.588983 -0.718559 7.125017 -1.684438 1.086198 13.678753 -12.987434 0.000000 -0.000001 -0.000000 -44.731421 -9.218318 -34.075814 55.637799 2.147268 7.101411 -20.686901 -4.777436 13.327835 1.545002 3.776584 -0.003037 0.000000 0.000000 -0.000000 
